<svg xmlns="http://www.w3.org/2000/svg" xmlns:xlink="http://www.w3.org/1999/xlink" width="500" zoomAndPan="magnify" viewBox="0 0 375 374.999991" height="500" preserveAspectRatio="xMidYMid meet" version="1.0"><defs><filter x="0%" y="0%" width="100%" xlink:type="simple" xlink:actuate="onLoad" height="100%" id="id1" xlink:show="other"><feColorMatrix values="0 0 0 0 1 0 0 0 0 1 0 0 0 0 1 0 0 0 1 0" color-interpolation-filters="sRGB"/></filter><g><g id="id2"/><g id="id3"/></g><mask id="id4"><g filter="url(#id1)"><rect x="-37.5" width="450" fill="rgb(0%, 0%, 0%)" y="-37.499999" height="449.999989" fill-opacity="0.9765"/></g></mask><clipPath id="id5"><path d="M 0 0 L 375 0 L 375 375 L 0 375 Z M 0 0 " clip-rule="nonzero"/></clipPath><clipPath id="id6"><rect x="0" width="375" y="0" height="375"/></clipPath><clipPath id="id7"><path d="M 298 281 L 302.464844 281 L 302.464844 285.894531 L 298 285.894531 Z M 298 281 " clip-rule="nonzero"/></clipPath><clipPath id="id8"><path d="M 72.214844 59 L 77 59 L 77 282 L 72.214844 282 Z M 72.214844 59 " clip-rule="nonzero"/></clipPath><clipPath id="id9"><path d="M 72.214844 281 L 77 281 L 77 285.894531 L 72.214844 285.894531 Z M 72.214844 281 " clip-rule="nonzero"/></clipPath><clipPath id="id10"><path d="M 298 59 L 302.464844 59 L 302.464844 282 L 298 282 Z M 298 59 " clip-rule="nonzero"/></clipPath><clipPath id="id11"><path d="M 76 281 L 299 281 L 299 285.894531 L 76 285.894531 Z M 76 281 " clip-rule="nonzero"/></clipPath><clipPath id="id12"><path d="M 298 55.644531 L 302.464844 55.644531 L 302.464844 60 L 298 60 Z M 298 55.644531 " clip-rule="nonzero"/></clipPath><clipPath id="id13"><path d="M 72.214844 55.644531 L 77 55.644531 L 77 60 L 72.214844 60 Z M 72.214844 55.644531 " clip-rule="nonzero"/></clipPath><clipPath id="id14"><path d="M 76 55.644531 L 299 55.644531 L 299 60 L 76 60 Z M 76 55.644531 " clip-rule="nonzero"/></clipPath></defs><g mask="url(#id4)"><g transform="matrix(1, 0, 0, 1, 0, 0)"><g clip-path="url(#id6)"><g clip-path="url(#id5)"><rect x="-82.5" width="540" fill="rgb(0%, 0%, 0%)" height="539.999987" y="-82.499998" fill-opacity="1"/></g></g></g></g><g clip-path="url(#id7)"><path fill="rgb(100%, 100%, 100%)" d="M 298.8125 281.714844 L 305.824219 281.714844 L 305.824219 288.722656 L 298.8125 288.722656 Z M 298.8125 281.714844 " fill-opacity="1" fill-rule="nonzero"/></g><g clip-path="url(#id8)"><path fill="rgb(100%, 100%, 100%)" d="M 69.574219 59.5625 L 76.660156 59.5625 L 76.660156 281.714844 L 69.574219 281.714844 Z M 69.574219 59.5625 " fill-opacity="1" fill-rule="nonzero"/></g><g clip-path="url(#id9)"><path fill="rgb(100%, 100%, 100%)" d="M 69.574219 281.714844 L 76.660156 281.714844 L 76.660156 288.722656 L 69.574219 288.722656 Z M 69.574219 281.714844 " fill-opacity="1" fill-rule="nonzero"/></g><g clip-path="url(#id10)"><path fill="rgb(100%, 100%, 100%)" d="M 298.8125 59.5625 L 305.824219 59.5625 L 305.824219 281.714844 L 298.8125 281.714844 Z M 298.8125 59.5625 " fill-opacity="1" fill-rule="nonzero"/></g><g clip-path="url(#id11)"><path fill="rgb(100%, 100%, 100%)" d="M 76.660156 281.714844 L 298.8125 281.714844 L 298.8125 288.722656 L 76.660156 288.722656 Z M 76.660156 281.714844 " fill-opacity="1" fill-rule="nonzero"/></g><g clip-path="url(#id12)"><path fill="rgb(100%, 100%, 100%)" d="M 298.8125 52.472656 L 305.824219 52.472656 L 305.824219 59.5625 L 298.8125 59.5625 Z M 298.8125 52.472656 " fill-opacity="1" fill-rule="nonzero"/></g><g clip-path="url(#id13)"><path fill="rgb(100%, 100%, 100%)" d="M 69.574219 52.472656 L 76.660156 52.472656 L 76.660156 59.5625 L 69.574219 59.5625 Z M 69.574219 52.472656 " fill-opacity="1" fill-rule="nonzero"/></g><g clip-path="url(#id14)"><path fill="rgb(100%, 100%, 100%)" d="M 76.660156 52.472656 L 298.8125 52.472656 L 298.8125 59.5625 L 76.660156 59.5625 Z M 76.660156 52.472656 " fill-opacity="1" fill-rule="nonzero"/></g><g fill="rgb(100%, 100%, 100%)" fill-opacity="1"><g transform="translate(97.815876, 214.41548)"><g><path d="M 5.46875 -10.4375 L 5.46875 -11.859375 C 5.46875 -13.546875 5.703125 -14.703125 6.171875 -15.328125 C 6.648438 -15.960938 7.390625 -16.28125 8.390625 -16.28125 C 9.390625 -16.28125 10.125 -15.960938 10.59375 -15.328125 C 11.070312 -14.703125 11.3125 -13.546875 11.3125 -11.859375 L 11.3125 -10.4375 C 11.3125 -9.019531 11.113281 -7.929688 10.71875 -7.171875 C 10.332031 -6.421875 9.554688 -6.046875 8.390625 -6.046875 C 7.222656 -6.046875 6.441406 -6.421875 6.046875 -7.171875 C 5.660156 -7.929688 5.46875 -9.019531 5.46875 -10.4375 Z M 6.015625 -5.71875 C 6.265625 -5.632812 6.585938 -5.554688 6.984375 -5.484375 C 7.390625 -5.421875 7.859375 -5.390625 8.390625 -5.390625 C 9.640625 -5.390625 10.695312 -5.597656 11.5625 -6.015625 C 12.425781 -6.429688 13.117188 -6.9375 13.640625 -7.53125 C 14.171875 -8.132812 14.546875 -8.769531 14.765625 -9.4375 C 14.992188 -10.101562 15.109375 -10.6875 15.109375 -11.1875 C 15.109375 -12.851562 14.453125 -14.269531 13.140625 -15.4375 C 13.785156 -16.1875 14.382812 -16.6875 14.9375 -16.9375 C 14.832031 -16.71875 14.78125 -16.5 14.78125 -16.28125 C 14.78125 -15.945312 14.894531 -15.664062 15.125 -15.4375 C 15.363281 -15.21875 15.691406 -15.109375 16.109375 -15.109375 C 16.554688 -15.109375 16.875 -15.238281 17.0625 -15.5 C 17.257812 -15.769531 17.359375 -16.039062 17.359375 -16.3125 C 17.359375 -16.726562 17.203125 -17.046875 16.890625 -17.265625 C 16.585938 -17.492188 16.226562 -17.609375 15.8125 -17.609375 C 14.757812 -17.609375 13.703125 -17.007812 12.640625 -15.8125 C 12.253906 -16.144531 11.671875 -16.414062 10.890625 -16.625 C 10.109375 -16.832031 9.273438 -16.9375 8.390625 -16.9375 C 7.304688 -16.9375 6.335938 -16.773438 5.484375 -16.453125 C 4.640625 -16.140625 3.9375 -15.710938 3.375 -15.171875 C 2.820312 -14.628906 2.398438 -14.007812 2.109375 -13.3125 C 1.816406 -12.613281 1.671875 -11.90625 1.671875 -11.1875 C 1.671875 -9.957031 2.023438 -8.894531 2.734375 -8 C 3.441406 -7.113281 4.242188 -6.453125 5.140625 -6.015625 C 3.796875 -5.617188 2.851562 -5.113281 2.3125 -4.5 C 1.769531 -3.894531 1.5 -3.101562 1.5 -2.125 C 1.5 -1.488281 1.601562 -0.929688 1.8125 -0.453125 C 2.019531 0.015625 2.296875 0.414062 2.640625 0.75 C 2.992188 1.082031 3.382812 1.335938 3.8125 1.515625 C 4.25 1.703125 4.675781 1.820312 5.09375 1.875 C 3.925781 2.289062 3.019531 2.875 2.375 3.625 C 1.738281 4.375 1.421875 5.296875 1.421875 6.390625 C 1.421875 7.160156 1.597656 7.835938 1.953125 8.421875 C 2.316406 9.015625 2.832031 9.5 3.5 9.875 C 4.164062 10.25 4.957031 10.53125 5.875 10.71875 C 6.800781 10.914062 7.820312 11.015625 8.9375 11.015625 C 10.039062 11.015625 11.078125 10.859375 12.046875 10.546875 C 13.023438 10.242188 13.882812 9.796875 14.625 9.203125 C 15.363281 8.609375 15.941406 7.878906 16.359375 7.015625 C 16.773438 6.148438 16.984375 5.144531 16.984375 4 C 16.984375 2.25 16.515625 0.960938 15.578125 0.140625 C 14.648438 -0.671875 13.4375 -1.078125 11.9375 -1.078125 L 5.21875 -1.078125 C 3.46875 -1.078125 2.59375 -1.675781 2.59375 -2.875 C 2.59375 -3.6875 2.910156 -4.289062 3.546875 -4.6875 C 4.179688 -5.09375 5.003906 -5.4375 6.015625 -5.71875 Z M 15.4375 5.71875 C 15.4375 6.550781 15.234375 7.257812 14.828125 7.84375 C 14.429688 8.425781 13.925781 8.90625 13.3125 9.28125 C 12.695312 9.65625 12.003906 9.925781 11.234375 10.09375 C 10.472656 10.257812 9.75 10.34375 9.0625 10.34375 C 7.914062 10.34375 6.976562 10.191406 6.25 9.890625 C 5.53125 9.585938 4.960938 9.207031 4.546875 8.75 C 4.128906 8.289062 3.835938 7.773438 3.671875 7.203125 C 3.503906 6.628906 3.421875 6.09375 3.421875 5.59375 C 3.421875 5.0625 3.507812 4.566406 3.6875 4.109375 C 3.875 3.648438 4.097656 3.257812 4.359375 2.9375 C 4.617188 2.625 4.894531 2.375 5.1875 2.1875 C 5.488281 2.007812 5.75 1.921875 5.96875 1.921875 L 11.265625 1.921875 C 11.929688 1.921875 12.519531 2.023438 13.03125 2.234375 C 13.550781 2.441406 13.992188 2.722656 14.359375 3.078125 C 14.722656 3.441406 14.992188 3.847656 15.171875 4.296875 C 15.347656 4.742188 15.4375 5.21875 15.4375 5.71875 Z M 15.4375 5.71875 "/></g></g></g><g fill="rgb(100%, 100%, 100%)" fill-opacity="1"><g transform="translate(115.593082, 214.41548)"><g><path d="M 9.46875 0.578125 C 10.726562 0.578125 11.863281 0.296875 12.875 -0.265625 C 13.882812 -0.835938 14.742188 -1.554688 15.453125 -2.421875 C 16.171875 -3.285156 16.722656 -4.226562 17.109375 -5.25 C 17.503906 -6.28125 17.703125 -7.257812 17.703125 -8.1875 C 17.703125 -9.101562 17.503906 -10.070312 17.109375 -11.09375 C 16.722656 -12.125 16.171875 -13.070312 15.453125 -13.9375 C 14.742188 -14.800781 13.882812 -15.515625 12.875 -16.078125 C 11.863281 -16.648438 10.726562 -16.9375 9.46875 -16.9375 C 8.21875 -16.9375 7.082031 -16.648438 6.0625 -16.078125 C 5.050781 -15.515625 4.179688 -14.800781 3.453125 -13.9375 C 2.734375 -13.070312 2.175781 -12.125 1.78125 -11.09375 C 1.394531 -10.070312 1.203125 -9.101562 1.203125 -8.1875 C 1.203125 -7.257812 1.394531 -6.28125 1.78125 -5.25 C 2.175781 -4.226562 2.734375 -3.285156 3.453125 -2.421875 C 4.179688 -1.554688 5.050781 -0.835938 6.0625 -0.265625 C 7.082031 0.296875 8.21875 0.578125 9.46875 0.578125 Z M 5.546875 -9.09375 C 5.546875 -10.257812 5.59375 -11.285156 5.6875 -12.171875 C 5.789062 -13.066406 5.976562 -13.820312 6.25 -14.4375 C 6.53125 -15.050781 6.925781 -15.507812 7.4375 -15.8125 C 7.957031 -16.125 8.632812 -16.28125 9.46875 -16.28125 C 10.300781 -16.28125 10.972656 -16.125 11.484375 -15.8125 C 12.003906 -15.507812 12.394531 -15.050781 12.65625 -14.4375 C 12.925781 -13.820312 13.109375 -13.066406 13.203125 -12.171875 C 13.304688 -11.285156 13.359375 -10.257812 13.359375 -9.09375 L 13.359375 -7.296875 C 13.359375 -6.046875 13.304688 -4.96875 13.203125 -4.0625 C 13.109375 -3.164062 12.925781 -2.421875 12.65625 -1.828125 C 12.394531 -1.242188 12.003906 -0.804688 11.484375 -0.515625 C 10.972656 -0.222656 10.300781 -0.078125 9.46875 -0.078125 C 8.632812 -0.078125 7.957031 -0.222656 7.4375 -0.515625 C 6.925781 -0.804688 6.53125 -1.242188 6.25 -1.828125 C 5.976562 -2.421875 5.789062 -3.164062 5.6875 -4.0625 C 5.59375 -4.96875 5.546875 -6.046875 5.546875 -7.296875 Z M 5.546875 -9.09375 "/></g></g></g><g fill="rgb(100%, 100%, 100%)" fill-opacity="1"><g transform="translate(134.24663, 214.41548)"><g><path d="M 9.46875 0.578125 C 10.726562 0.578125 11.863281 0.296875 12.875 -0.265625 C 13.882812 -0.835938 14.742188 -1.554688 15.453125 -2.421875 C 16.171875 -3.285156 16.722656 -4.226562 17.109375 -5.25 C 17.503906 -6.28125 17.703125 -7.257812 17.703125 -8.1875 C 17.703125 -9.101562 17.503906 -10.070312 17.109375 -11.09375 C 16.722656 -12.125 16.171875 -13.070312 15.453125 -13.9375 C 14.742188 -14.800781 13.882812 -15.515625 12.875 -16.078125 C 11.863281 -16.648438 10.726562 -16.9375 9.46875 -16.9375 C 8.21875 -16.9375 7.082031 -16.648438 6.0625 -16.078125 C 5.050781 -15.515625 4.179688 -14.800781 3.453125 -13.9375 C 2.734375 -13.070312 2.175781 -12.125 1.78125 -11.09375 C 1.394531 -10.070312 1.203125 -9.101562 1.203125 -8.1875 C 1.203125 -7.257812 1.394531 -6.28125 1.78125 -5.25 C 2.175781 -4.226562 2.734375 -3.285156 3.453125 -2.421875 C 4.179688 -1.554688 5.050781 -0.835938 6.0625 -0.265625 C 7.082031 0.296875 8.21875 0.578125 9.46875 0.578125 Z M 5.546875 -9.09375 C 5.546875 -10.257812 5.59375 -11.285156 5.6875 -12.171875 C 5.789062 -13.066406 5.976562 -13.820312 6.25 -14.4375 C 6.53125 -15.050781 6.925781 -15.507812 7.4375 -15.8125 C 7.957031 -16.125 8.632812 -16.28125 9.46875 -16.28125 C 10.300781 -16.28125 10.972656 -16.125 11.484375 -15.8125 C 12.003906 -15.507812 12.394531 -15.050781 12.65625 -14.4375 C 12.925781 -13.820312 13.109375 -13.066406 13.203125 -12.171875 C 13.304688 -11.285156 13.359375 -10.257812 13.359375 -9.09375 L 13.359375 -7.296875 C 13.359375 -6.046875 13.304688 -4.96875 13.203125 -4.0625 C 13.109375 -3.164062 12.925781 -2.421875 12.65625 -1.828125 C 12.394531 -1.242188 12.003906 -0.804688 11.484375 -0.515625 C 10.972656 -0.222656 10.300781 -0.078125 9.46875 -0.078125 C 8.632812 -0.078125 7.957031 -0.222656 7.4375 -0.515625 C 6.925781 -0.804688 6.53125 -1.242188 6.25 -1.828125 C 5.976562 -2.421875 5.789062 -3.164062 5.6875 -4.0625 C 5.59375 -4.96875 5.546875 -6.046875 5.546875 -7.296875 Z M 5.546875 -9.09375 "/></g></g></g><g fill="rgb(100%, 100%, 100%)" fill-opacity="1"><g transform="translate(152.900178, 214.41548)"><g><path d="M 10.6875 -27.375 L 13.859375 -27.375 L 13.859375 -14.6875 C 12.828125 -16.1875 11.3125 -16.9375 9.3125 -16.9375 C 8.300781 -16.9375 7.320312 -16.6875 6.375 -16.1875 C 5.4375 -15.6875 4.601562 -15.023438 3.875 -14.203125 C 3.15625 -13.390625 2.570312 -12.457031 2.125 -11.40625 C 1.675781 -10.363281 1.453125 -9.300781 1.453125 -8.21875 C 1.453125 -7.050781 1.695312 -5.929688 2.1875 -4.859375 C 2.675781 -3.785156 3.296875 -2.84375 4.046875 -2.03125 C 4.796875 -1.226562 5.628906 -0.59375 6.546875 -0.125 C 7.460938 0.34375 8.34375 0.578125 9.1875 0.578125 C 10.289062 0.578125 11.21875 0.300781 11.96875 -0.25 C 12.726562 -0.800781 13.359375 -1.441406 13.859375 -2.171875 L 13.859375 0 L 20.609375 0 L 20.609375 -0.671875 L 17.4375 -0.671875 L 17.4375 -28.046875 L 10.6875 -28.046875 Z M 5.796875 -9.265625 C 5.796875 -11.847656 6.070312 -13.660156 6.625 -14.703125 C 7.1875 -15.753906 8.132812 -16.28125 9.46875 -16.28125 C 10.050781 -16.28125 10.570312 -16.179688 11.03125 -15.984375 C 11.5 -15.785156 11.90625 -15.523438 12.25 -15.203125 C 12.59375 -14.890625 12.894531 -14.550781 13.15625 -14.1875 C 13.425781 -13.820312 13.660156 -13.472656 13.859375 -13.140625 L 13.859375 -3.375 C 13.242188 -2.351562 12.566406 -1.546875 11.828125 -0.953125 C 11.085938 -0.367188 10.257812 -0.078125 9.34375 -0.078125 C 8.757812 -0.078125 8.242188 -0.195312 7.796875 -0.4375 C 7.359375 -0.675781 6.992188 -1.066406 6.703125 -1.609375 C 6.410156 -2.148438 6.1875 -2.878906 6.03125 -3.796875 C 5.875 -4.710938 5.796875 -5.851562 5.796875 -7.21875 Z M 5.796875 -9.265625 "/></g></g></g><g fill="rgb(100%, 100%, 100%)" fill-opacity="1"><g transform="translate(97.815876, 257.165477)"><g><path d="M 1 -0.671875 L 1 0 L 10.84375 0 L 10.84375 -0.671875 L 7.71875 -0.671875 L 7.71875 -15.6875 L 11.09375 -15.6875 L 11.09375 -16.359375 L 7.71875 -16.359375 L 7.71875 -24.546875 C 7.71875 -26.628906 8.441406 -27.671875 9.890625 -27.671875 C 10.441406 -27.671875 10.890625 -27.585938 11.234375 -27.421875 C 11.585938 -27.253906 11.765625 -27.113281 11.765625 -27 C 11.765625 -26.914062 11.738281 -26.859375 11.6875 -26.828125 C 11.40625 -26.691406 11.191406 -26.503906 11.046875 -26.265625 C 10.910156 -26.035156 10.84375 -25.78125 10.84375 -25.5 C 10.84375 -25.050781 10.984375 -24.707031 11.265625 -24.46875 C 11.546875 -24.238281 11.878906 -24.125 12.265625 -24.125 C 12.742188 -24.125 13.085938 -24.269531 13.296875 -24.5625 C 13.503906 -24.851562 13.609375 -25.191406 13.609375 -25.578125 C 13.609375 -26.242188 13.265625 -26.867188 12.578125 -27.453125 C 11.898438 -28.046875 10.976562 -28.34375 9.8125 -28.34375 C 8.914062 -28.34375 8.019531 -28.078125 7.125 -27.546875 C 6.238281 -27.015625 5.519531 -26.097656 4.96875 -24.796875 C 4.570312 -23.847656 4.332031 -22.757812 4.25 -21.53125 C 4.164062 -20.3125 4.125 -19.1875 4.125 -18.15625 L 4.125 -16.359375 L 1.046875 -16.359375 L 1.046875 -15.6875 L 4.125 -15.6875 L 4.125 -0.671875 Z M 1 -0.671875 "/></g></g></g><g fill="rgb(100%, 100%, 100%)" fill-opacity="1"><g transform="translate(112.087711, 257.165477)"><g><path d="M 9.46875 0.578125 C 10.726562 0.578125 11.863281 0.296875 12.875 -0.265625 C 13.882812 -0.835938 14.742188 -1.554688 15.453125 -2.421875 C 16.171875 -3.285156 16.722656 -4.226562 17.109375 -5.25 C 17.503906 -6.28125 17.703125 -7.257812 17.703125 -8.1875 C 17.703125 -9.101562 17.503906 -10.070312 17.109375 -11.09375 C 16.722656 -12.125 16.171875 -13.070312 15.453125 -13.9375 C 14.742188 -14.800781 13.882812 -15.515625 12.875 -16.078125 C 11.863281 -16.648438 10.726562 -16.9375 9.46875 -16.9375 C 8.21875 -16.9375 7.082031 -16.648438 6.0625 -16.078125 C 5.050781 -15.515625 4.179688 -14.800781 3.453125 -13.9375 C 2.734375 -13.070312 2.175781 -12.125 1.78125 -11.09375 C 1.394531 -10.070312 1.203125 -9.101562 1.203125 -8.1875 C 1.203125 -7.257812 1.394531 -6.28125 1.78125 -5.25 C 2.175781 -4.226562 2.734375 -3.285156 3.453125 -2.421875 C 4.179688 -1.554688 5.050781 -0.835938 6.0625 -0.265625 C 7.082031 0.296875 8.21875 0.578125 9.46875 0.578125 Z M 5.546875 -9.09375 C 5.546875 -10.257812 5.59375 -11.285156 5.6875 -12.171875 C 5.789062 -13.066406 5.976562 -13.820312 6.25 -14.4375 C 6.53125 -15.050781 6.925781 -15.507812 7.4375 -15.8125 C 7.957031 -16.125 8.632812 -16.28125 9.46875 -16.28125 C 10.300781 -16.28125 10.972656 -16.125 11.484375 -15.8125 C 12.003906 -15.507812 12.394531 -15.050781 12.65625 -14.4375 C 12.925781 -13.820312 13.109375 -13.066406 13.203125 -12.171875 C 13.304688 -11.285156 13.359375 -10.257812 13.359375 -9.09375 L 13.359375 -7.296875 C 13.359375 -6.046875 13.304688 -4.96875 13.203125 -4.0625 C 13.109375 -3.164062 12.925781 -2.421875 12.65625 -1.828125 C 12.394531 -1.242188 12.003906 -0.804688 11.484375 -0.515625 C 10.972656 -0.222656 10.300781 -0.078125 9.46875 -0.078125 C 8.632812 -0.078125 7.957031 -0.222656 7.4375 -0.515625 C 6.925781 -0.804688 6.53125 -1.242188 6.25 -1.828125 C 5.976562 -2.421875 5.789062 -3.164062 5.6875 -4.0625 C 5.59375 -4.96875 5.546875 -6.046875 5.546875 -7.296875 Z M 5.546875 -9.09375 "/></g></g></g><g fill="rgb(100%, 100%, 100%)" fill-opacity="1"><g transform="translate(130.741259, 257.165477)"><g><path d="M 9.46875 0.578125 C 10.726562 0.578125 11.863281 0.296875 12.875 -0.265625 C 13.882812 -0.835938 14.742188 -1.554688 15.453125 -2.421875 C 16.171875 -3.285156 16.722656 -4.226562 17.109375 -5.25 C 17.503906 -6.28125 17.703125 -7.257812 17.703125 -8.1875 C 17.703125 -9.101562 17.503906 -10.070312 17.109375 -11.09375 C 16.722656 -12.125 16.171875 -13.070312 15.453125 -13.9375 C 14.742188 -14.800781 13.882812 -15.515625 12.875 -16.078125 C 11.863281 -16.648438 10.726562 -16.9375 9.46875 -16.9375 C 8.21875 -16.9375 7.082031 -16.648438 6.0625 -16.078125 C 5.050781 -15.515625 4.179688 -14.800781 3.453125 -13.9375 C 2.734375 -13.070312 2.175781 -12.125 1.78125 -11.09375 C 1.394531 -10.070312 1.203125 -9.101562 1.203125 -8.1875 C 1.203125 -7.257812 1.394531 -6.28125 1.78125 -5.25 C 2.175781 -4.226562 2.734375 -3.285156 3.453125 -2.421875 C 4.179688 -1.554688 5.050781 -0.835938 6.0625 -0.265625 C 7.082031 0.296875 8.21875 0.578125 9.46875 0.578125 Z M 5.546875 -9.09375 C 5.546875 -10.257812 5.59375 -11.285156 5.6875 -12.171875 C 5.789062 -13.066406 5.976562 -13.820312 6.25 -14.4375 C 6.53125 -15.050781 6.925781 -15.507812 7.4375 -15.8125 C 7.957031 -16.125 8.632812 -16.28125 9.46875 -16.28125 C 10.300781 -16.28125 10.972656 -16.125 11.484375 -15.8125 C 12.003906 -15.507812 12.394531 -15.050781 12.65625 -14.4375 C 12.925781 -13.820312 13.109375 -13.066406 13.203125 -12.171875 C 13.304688 -11.285156 13.359375 -10.257812 13.359375 -9.09375 L 13.359375 -7.296875 C 13.359375 -6.046875 13.304688 -4.96875 13.203125 -4.0625 C 13.109375 -3.164062 12.925781 -2.421875 12.65625 -1.828125 C 12.394531 -1.242188 12.003906 -0.804688 11.484375 -0.515625 C 10.972656 -0.222656 10.300781 -0.078125 9.46875 -0.078125 C 8.632812 -0.078125 7.957031 -0.222656 7.4375 -0.515625 C 6.925781 -0.804688 6.53125 -1.242188 6.25 -1.828125 C 5.976562 -2.421875 5.789062 -3.164062 5.6875 -4.0625 C 5.59375 -4.96875 5.546875 -6.046875 5.546875 -7.296875 Z M 5.546875 -9.09375 "/></g></g></g><g fill="rgb(100%, 100%, 100%)" fill-opacity="1"><g transform="translate(149.394807, 257.165477)"><g><path d="M 10.6875 -27.375 L 13.859375 -27.375 L 13.859375 -14.6875 C 12.828125 -16.1875 11.3125 -16.9375 9.3125 -16.9375 C 8.300781 -16.9375 7.320312 -16.6875 6.375 -16.1875 C 5.4375 -15.6875 4.601562 -15.023438 3.875 -14.203125 C 3.15625 -13.390625 2.570312 -12.457031 2.125 -11.40625 C 1.675781 -10.363281 1.453125 -9.300781 1.453125 -8.21875 C 1.453125 -7.050781 1.695312 -5.929688 2.1875 -4.859375 C 2.675781 -3.785156 3.296875 -2.84375 4.046875 -2.03125 C 4.796875 -1.226562 5.628906 -0.59375 6.546875 -0.125 C 7.460938 0.34375 8.34375 0.578125 9.1875 0.578125 C 10.289062 0.578125 11.21875 0.300781 11.96875 -0.25 C 12.726562 -0.800781 13.359375 -1.441406 13.859375 -2.171875 L 13.859375 0 L 20.609375 0 L 20.609375 -0.671875 L 17.4375 -0.671875 L 17.4375 -28.046875 L 10.6875 -28.046875 Z M 5.796875 -9.265625 C 5.796875 -11.847656 6.070312 -13.660156 6.625 -14.703125 C 7.1875 -15.753906 8.132812 -16.28125 9.46875 -16.28125 C 10.050781 -16.28125 10.570312 -16.179688 11.03125 -15.984375 C 11.5 -15.785156 11.90625 -15.523438 12.25 -15.203125 C 12.59375 -14.890625 12.894531 -14.550781 13.15625 -14.1875 C 13.425781 -13.820312 13.660156 -13.472656 13.859375 -13.140625 L 13.859375 -3.375 C 13.242188 -2.351562 12.566406 -1.546875 11.828125 -0.953125 C 11.085938 -0.367188 10.257812 -0.078125 9.34375 -0.078125 C 8.757812 -0.078125 8.242188 -0.195312 7.796875 -0.4375 C 7.359375 -0.675781 6.992188 -1.066406 6.703125 -1.609375 C 6.410156 -2.148438 6.1875 -2.878906 6.03125 -3.796875 C 5.875 -4.710938 5.796875 -5.851562 5.796875 -7.21875 Z M 5.796875 -9.265625 "/></g></g></g><g fill="rgb(100%, 100%, 100%)" fill-opacity="1"><g transform="translate(155.267325, 317.480077)"><g><path d="M 6.390625 0 L 4.859375 -2.53125 C 4.785156 -2.519531 4.660156 -2.515625 4.484375 -2.515625 L 2.5 -2.515625 L 2.5 0 L 1.09375 0 L 1.09375 -8.34375 L 4.484375 -8.34375 C 5.546875 -8.34375 6.367188 -8.09375 6.953125 -7.59375 C 7.546875 -7.101562 7.84375 -6.40625 7.84375 -5.5 C 7.84375 -4.832031 7.691406 -4.265625 7.390625 -3.796875 C 7.097656 -3.335938 6.671875 -3.003906 6.109375 -2.796875 L 7.984375 0 Z M 2.5 -3.78125 L 4.484375 -3.78125 C 5.835938 -3.78125 6.515625 -4.335938 6.515625 -5.453125 C 6.515625 -6.535156 5.835938 -7.078125 4.484375 -7.078125 L 2.5 -7.078125 Z M 2.5 -3.78125 "/></g></g></g><g fill="rgb(100%, 100%, 100%)" fill-opacity="1"><g transform="translate(166.030588, 317.480077)"><g><path d="M 7.0625 -7.078125 L 2.5 -7.078125 L 2.5 -4.828125 L 6.578125 -4.828125 L 6.578125 -3.5625 L 2.5 -3.5625 L 2.5 -1.265625 L 7.203125 -1.265625 L 7.203125 0 L 1.09375 0 L 1.09375 -8.34375 L 7.0625 -8.34375 Z M 7.0625 -7.078125 "/></g></g></g><g fill="rgb(100%, 100%, 100%)" fill-opacity="1"><g transform="translate(175.995352, 317.480077)"><g><path d="M 4.796875 -8.375 C 5.378906 -8.375 5.953125 -8.257812 6.515625 -8.03125 C 7.078125 -7.8125 7.5625 -7.5 7.96875 -7.09375 L 7.140625 -6.0625 C 6.835938 -6.394531 6.476562 -6.65625 6.0625 -6.84375 C 5.65625 -7.03125 5.238281 -7.125 4.8125 -7.125 C 3.976562 -7.125 3.273438 -6.835938 2.703125 -6.265625 C 2.128906 -5.703125 1.84375 -5.015625 1.84375 -4.203125 C 1.84375 -3.367188 2.128906 -2.664062 2.703125 -2.09375 C 3.273438 -1.53125 3.976562 -1.25 4.8125 -1.25 C 5.675781 -1.25 6.453125 -1.578125 7.140625 -2.234375 L 7.96875 -1.3125 C 7.539062 -0.882812 7.039062 -0.546875 6.46875 -0.296875 C 5.894531 -0.0546875 5.320312 0.0625 4.75 0.0625 C 3.519531 0.0625 2.488281 -0.34375 1.65625 -1.15625 C 0.820312 -1.976562 0.40625 -2.988281 0.40625 -4.1875 C 0.40625 -5.375 0.828125 -6.367188 1.671875 -7.171875 C 2.515625 -7.972656 3.554688 -8.375 4.796875 -8.375 Z M 4.796875 -8.375 "/></g></g></g><g fill="rgb(100%, 100%, 100%)" fill-opacity="1"><g transform="translate(186.448742, 317.480077)"><g><path d="M 2.5 0 L 1.09375 0 L 1.09375 -8.34375 L 2.5 -8.34375 Z M 2.5 0 "/></g></g></g><g fill="rgb(100%, 100%, 100%)" fill-opacity="1"><g transform="translate(192.194551, 317.480077)"><g><path d="M 1.09375 -8.34375 L 4.421875 -8.34375 C 5.472656 -8.34375 6.285156 -8.09375 6.859375 -7.59375 C 7.429688 -7.101562 7.71875 -6.40625 7.71875 -5.5 C 7.71875 -4.550781 7.429688 -3.816406 6.859375 -3.296875 C 6.285156 -2.773438 5.472656 -2.515625 4.421875 -2.515625 L 2.5 -2.515625 L 2.5 0 L 1.09375 0 Z M 2.5 -7.078125 L 2.5 -3.78125 L 4.359375 -3.78125 C 5.703125 -3.78125 6.375 -4.335938 6.375 -5.453125 C 6.375 -6.535156 5.703125 -7.078125 4.359375 -7.078125 Z M 2.5 -7.078125 "/></g></g></g><g fill="rgb(100%, 100%, 100%)" fill-opacity="1"><g transform="translate(202.361911, 317.480077)"><g><path d="M 7.0625 -7.078125 L 2.5 -7.078125 L 2.5 -4.828125 L 6.578125 -4.828125 L 6.578125 -3.5625 L 2.5 -3.5625 L 2.5 -1.265625 L 7.203125 -1.265625 L 7.203125 0 L 1.09375 0 L 1.09375 -8.34375 L 7.0625 -8.34375 Z M 7.0625 -7.078125 "/></g></g></g><g fill="rgb(100%, 100%, 100%)" fill-opacity="1"><g transform="translate(212.326676, 317.480077)"><g><path d="M 3.84375 -8.40625 C 4.914062 -8.40625 5.890625 -8.117188 6.765625 -7.546875 L 6.171875 -6.3125 C 5.328125 -6.820312 4.515625 -7.078125 3.734375 -7.078125 C 3.304688 -7.078125 2.972656 -7 2.734375 -6.84375 C 2.492188 -6.695312 2.375 -6.484375 2.375 -6.203125 C 2.375 -5.929688 2.484375 -5.695312 2.703125 -5.5 C 2.929688 -5.300781 3.210938 -5.15625 3.546875 -5.0625 C 3.878906 -4.976562 4.238281 -4.863281 4.625 -4.71875 C 5.007812 -4.582031 5.367188 -4.4375 5.703125 -4.28125 C 6.046875 -4.125 6.320312 -3.878906 6.53125 -3.546875 C 6.75 -3.222656 6.859375 -2.828125 6.859375 -2.359375 C 6.859375 -1.628906 6.566406 -1.046875 5.984375 -0.609375 C 5.398438 -0.171875 4.644531 0.046875 3.71875 0.046875 C 3.082031 0.046875 2.46875 -0.0703125 1.875 -0.3125 C 1.28125 -0.550781 0.757812 -0.875 0.3125 -1.28125 L 0.921875 -2.484375 C 1.335938 -2.097656 1.796875 -1.800781 2.296875 -1.59375 C 2.804688 -1.382812 3.289062 -1.28125 3.75 -1.28125 C 4.238281 -1.28125 4.617188 -1.367188 4.890625 -1.546875 C 5.171875 -1.722656 5.3125 -1.96875 5.3125 -2.28125 C 5.3125 -2.570312 5.195312 -2.8125 4.96875 -3 C 4.75 -3.195312 4.472656 -3.34375 4.140625 -3.4375 C 3.804688 -3.53125 3.441406 -3.640625 3.046875 -3.765625 C 2.660156 -3.898438 2.300781 -4.039062 1.96875 -4.1875 C 1.632812 -4.332031 1.351562 -4.566406 1.125 -4.890625 C 0.90625 -5.222656 0.796875 -5.617188 0.796875 -6.078125 C 0.796875 -6.785156 1.070312 -7.347656 1.625 -7.765625 C 2.1875 -8.191406 2.925781 -8.40625 3.84375 -8.40625 Z M 3.84375 -8.40625 "/></g></g></g></svg>